<?xml version="1.0" encoding="iso-8859-1"?>
<!-- Generator: Adobe Illustrator 19.0.0, SVG Export Plug-In . SVG Version: 6.00 Build 0)  -->
<svg version="1.1" id="Capa_1" xmlns="http://www.w3.org/2000/svg" xmlns:xlink="http://www.w3.org/1999/xlink" x="0px" y="0px"
	 viewBox="0 0 495 495" style="enable-background:new 0 0 495 495;" xml:space="preserve">
<g>
	<path d="M395,244.138c35.365,0,64.138-28.772,64.138-64.138S430.365,115.862,395,115.862S330.862,144.634,330.862,180
		S359.635,244.138,395,244.138z M395,155.862c13.31,0,24.138,10.828,24.138,24.138S408.31,204.138,395,204.138
		S370.862,193.31,370.862,180S381.69,155.862,395,155.862z" fill="white"/>
	<path d="M100,244.138c35.365,0,64.138-28.772,64.138-64.138S135.365,115.862,100,115.862S35.862,144.634,35.862,180
		S64.635,244.138,100,244.138z M100,155.862c13.31,0,24.138,10.828,24.138,24.138S113.31,204.138,100,204.138
		S75.862,193.31,75.862,180S86.69,155.862,100,155.862z" fill="white"/>
	<path d="M395,259.138c-28.654,0-55.206,12.133-73.802,32.483c-18.294-19.952-44.559-32.483-73.698-32.483
		s-55.404,12.531-73.698,32.483c-18.596-20.35-45.147-32.483-73.802-32.483c-55.141,0-100,44.86-100,100v20h495v-20
		C495,303.998,450.141,259.138,395,259.138z M247.5,299.138c26.073,0,48.303,16.722,56.56,40H190.94
		C199.197,315.86,221.427,299.138,247.5,299.138z M100,299.138c21.729,0,41.445,11.622,52.054,30.139
		c-1.01,3.22-1.861,6.51-2.543,9.861H43.427C51.682,315.856,73.925,299.138,100,299.138z M345.489,339.138
		c-0.683-3.35-1.534-6.64-2.543-9.861c10.609-18.517,30.326-30.139,52.054-30.139c26.075,0,48.318,16.719,56.573,40H345.489z" fill="white"/>
	<path d="M247.5,244.138c35.365,0,64.138-28.772,64.138-64.138s-28.772-64.138-64.138-64.138S183.362,144.634,183.362,180
		S212.135,244.138,247.5,244.138z M247.5,155.862c13.31,0,24.138,10.828,24.138,24.138s-10.828,24.138-24.138,24.138
		S223.362,193.31,223.362,180S234.19,155.862,247.5,155.862z" fill="white"/>
</g>
<g>
</g>
<g>
</g>
<g>
</g>
<g>
</g>
<g>
</g>
<g>
</g>
<g>
</g>
<g>
</g>
<g>
</g>
<g>
</g>
<g>
</g>
<g>
</g>
<g>
</g>
<g>
</g>
<g>
</g>
</svg>
